HIERARCHY
ROOT Hips
{
	OFFSET -0.001795 -0.223333 0.028219
	CHANNELS 6 Xposition Yposition Zposition Zrotation Yrotation Xrotation 
	JOINT LeftUpLeg
	{
		OFFSET 0.069520 -0.091406 -0.006815
		CHANNELS 3 Zrotation Yrotation Xrotation
		JOINT LeftLeg
		{
			OFFSET 0.034277 -0.375199 -0.004496
			CHANNELS 3 Zrotation Yrotation Xrotation
			JOINT LeftFoot
			{
				OFFSET -0.013596 -0.397961 -0.043693
				CHANNELS 3 Zrotation Yrotation Xrotation
				JOINT LeftToe
				{
					OFFSET 0.026358 -0.055791 0.119288
					CHANNELS 3 Zrotation Yrotation Xrotation
					End Site
					{
						OFFSET 0.000000 0.000000 0.000000
					}
				}
			}
		}
	}
	JOINT RightUpLeg
	{
		OFFSET -0.067670 -0.090522 -0.004320
		CHANNELS 3 Zrotation Yrotation Xrotation
		JOINT RightLeg
		{
			OFFSET -0.038290 -0.382569 -0.008850
			CHANNELS 3 Zrotation Yrotation Xrotation
			JOINT RightFoot
			{
				OFFSET 0.015774 -0.398415 -0.042312
				CHANNELS 3 Zrotation Yrotation Xrotation
				JOINT RightToe
				{
					OFFSET -0.025372 -0.048144 0.123348
					CHANNELS 3 Zrotation Yrotation Xrotation
					End Site
					{
						OFFSET 0.000000 0.000000 0.000000
					}
				}
			}
		}
	}
	JOINT Spine
	{
		OFFSET -0.002533 0.108963 -0.026696
		CHANNELS 3 Zrotation Yrotation Xrotation
		JOINT Spine1
		{
			OFFSET 0.005487 0.135180 0.001092
			CHANNELS 3 Zrotation Yrotation Xrotation
			JOINT Spine2
			{
				OFFSET 0.001457 0.052922 0.025425
				CHANNELS 3 Zrotation Yrotation Xrotation
				JOINT Neck
				{
					OFFSET -0.002778 0.213870 -0.042857
					CHANNELS 3 Zrotation Yrotation Xrotation
					JOINT Head
					{
						OFFSET 0.005152 0.064970 0.051349
						CHANNELS 3 Zrotation Yrotation Xrotation
						End Site
						{
							OFFSET 0.000000 0.000000 0.000000
						}
					}
				}
				JOINT LeftShoulder
				{
					OFFSET 0.078845 0.121749 -0.034090
					CHANNELS 3 Zrotation Yrotation Xrotation
					JOINT LeftArm
					{
						OFFSET 0.090977 0.030469 -0.008868
						CHANNELS 3 Zrotation Yrotation Xrotation
						JOINT LeftForeArm
						{
							OFFSET 0.259612 -0.012772 -0.027456
							CHANNELS 3 Zrotation Yrotation Xrotation
							JOINT LeftHand
							{
								OFFSET 0.249234 0.008986 -0.001171
								CHANNELS 3 Zrotation Yrotation Xrotation
								End Site
								{
									OFFSET 0.000000 0.000000 0.000000
								}
							}
						}
					}
				}
				JOINT RightShoulder
				{
					OFFSET -0.081759 0.118833 -0.038615
					CHANNELS 3 Zrotation Yrotation Xrotation
					JOINT RightArm
					{
						OFFSET -0.096012 0.032551 -0.009143
						CHANNELS 3 Zrotation Yrotation Xrotation
						JOINT RightForeArm
						{
							OFFSET -0.253742 -0.013329 -0.021401
							CHANNELS 3 Zrotation Yrotation Xrotation
							JOINT RightHand
							{
								OFFSET -0.255298 0.007772 -0.005559
								CHANNELS 3 Zrotation Yrotation Xrotation
								End Site
								{
									OFFSET 0.000000 0.000000 0.000000
								}
							}
						}
					}
				}
			}
		}
	}
}
MOTION
Frames: 12
Frame Time: 0.050000
0.000000 0.955889 0.000000 -0.548952 -3.594690 2.222356 3.487647 0.333792 5.665580 0.364439 0.228791 -7.043967 2.515381 9.127024 15.903419 0.000000 0.000000 0.000000 -3.880521 0.005263 2.192233 3.026455 -0.343337 -4.131791 -2.822127 -12.093379 18.605012 0.000000 0.000000 0.000000 5.866420 -0.195211 1.179535 -4.786672 1.722936 -22.727708 -1.451997 5.602499 29.735582 8.726228 -3.738054 -21.591178 0.000000 0.000000 0.000000 0.661307 2.608011 -0.882480 -25.888881 -8.961644 -2.758068 12.618792 -19.448582 -1.483031 0.000000 0.000000 0.000000 6.637795 -12.274353 -5.345978 25.645161 11.122511 -2.088141 -11.062577 17.649200 -0.680664 0.000000 0.000000 0.000000 
0.000271 0.954162 0.002185 -0.948052 -4.074691 2.505984 3.713327 0.369462 6.344973 0.565378 0.274220 -8.312879 2.796793 9.464888 15.740027 0.000000 0.000000 0.000000 -3.738440 0.019337 1.950470 3.087430 -0.343559 -4.217768 -2.180841 -11.138149 18.615226 0.000000 0.000000 0.000000 6.359880 -0.155889 0.605556 -5.152694 1.808524 -22.481998 -1.356536 5.759950 29.749587 8.538390 -3.713482 -21.122068 0.000000 0.000000 0.000000 0.220526 2.543708 -0.903118 -27.957524 -8.995139 -2.949551 11.171714 -17.973072 -1.101979 0.000000 0.000000 0.000000 7.625992 -12.263734 -5.482698 28.216817 10.126077 -2.389629 -10.631250 19.463655 -0.697354 0.000000 0.000000 0.000000 
0.000338 0.953323 0.003732 -0.670008 -4.354163 2.475391 3.928405 0.345540 6.106525 -0.435012 0.293721 -7.605661 2.952355 9.611696 15.410990 0.000000 0.000000 0.000000 -4.310184 0.056546 1.936834 3.364888 -0.357575 -4.339014 -2.014771 -10.985745 18.962401 0.000000 0.000000 0.000000 6.449305 -0.136470 0.403251 -5.252384 1.822455 -22.951631 -1.521358 6.792865 30.841304 9.579085 -4.180849 -21.661020 0.000000 0.000000 0.000000 -0.811512 2.377233 -0.953008 -29.900106 -9.394809 -3.093020 10.548949 -18.691755 -1.064609 0.000000 0.000000 0.000000 9.729871 -12.919879 -6.000242 29.913907 10.925370 -2.424422 -9.440228 19.481164 -0.466055 0.000000 0.000000 0.000000 
0.000300 0.953258 0.005255 -0.687181 -4.903506 2.100261 4.139466 0.393963 6.844652 -0.908357 0.327554 -7.838079 3.141190 9.865669 15.532690 0.000000 0.000000 0.000000 -4.623471 0.042479 2.591380 3.979695 -0.386344 -4.359729 -1.813750 -10.529368 18.025241 0.000000 0.000000 0.000000 6.599707 -0.127534 0.391120 -5.453053 1.866906 -23.059769 -1.571206 6.823546 31.648059 9.042772 -3.909219 -21.617435 0.000000 0.000000 0.000000 -2.073904 2.862313 -1.254327 -32.877428 -9.043507 -3.498079 11.186758 -18.944177 -1.120286 0.000000 0.000000 0.000000 11.121812 -13.068656 -6.292802 31.869373 11.177038 -2.514802 -8.679153 20.143939 -0.363375 0.000000 0.000000 0.000000 
0.000166 0.953436 0.006478 -0.730741 -4.917167 2.219627 4.438797 0.372138 6.821045 -1.352699 0.350931 -7.872862 3.112402 9.831528 15.605300 0.000000 0.000000 0.000000 -4.668588 0.050511 2.522391 3.702365 -0.371974 -4.572573 -1.119160 -9.608644 18.833742 0.000000 0.000000 0.000000 6.274099 -0.113655 0.268915 -4.841655 1.714504 -22.735148 -1.661232 6.838311 31.048256 9.130525 -4.007227 -21.200530 0.000000 0.000000 0.000000 -3.490560 2.445129 -1.243820 -35.131468 -7.891676 -3.938664 10.161376 -18.828894 -0.926255 0.000000 0.000000 0.000000 11.915635 -12.691754 -6.226758 33.970282 10.548342 -2.702077 -7.836214 20.485131 -0.228384 0.000000 0.000000 0.000000 
0.000011 0.953643 0.007352 -0.684512 -5.265281 2.496663 4.328381 0.352101 6.349626 -1.343326 0.338764 -7.395103 3.325978 10.117284 15.651368 0.000000 0.000000 0.000000 -5.086026 0.102407 2.191496 3.924669 -0.379118 -4.416674 -0.276423 -8.284795 18.760137 0.000000 0.000000 0.000000 6.182996 -0.098118 0.063541 -5.019272 1.756993 -22.548413 -1.528614 6.675354 30.948655 8.755930 -3.653721 -22.136430 0.000000 0.000000 0.000000 -4.290480 2.886106 -1.484764 -38.586586 -7.392558 -4.414860 9.395710 -18.521974 -0.729767 0.000000 0.000000 0.000000 13.151850 -12.466839 -6.353216 36.815971 10.621962 -2.778355 -7.017121 20.643363 -0.094119 0.000000 0.000000 0.000000 
-0.000232 0.953565 0.007902 -0.675053 -5.666733 2.662039 4.436532 0.353260 6.388516 -1.644660 0.362792 -7.602341 3.493185 10.344084 15.793344 0.000000 0.000000 0.000000 -5.039622 0.112589 2.081463 3.820764 -0.369419 -4.557784 -0.181534 -8.156140 18.620629 0.000000 0.000000 0.000000 6.047518 -0.106333 0.140542 -4.754858 1.683099 -22.403376 -1.509464 6.920035 30.673832 8.767966 -3.604525 -22.384419 0.000000 0.000000 0.000000 -6.121739 3.077748 -1.766152 -41.270406 -5.980254 -5.098015 8.698597 -18.434867 -0.586630 0.000000 0.000000 0.000000 14.683755 -12.069973 -6.381965 39.634712 9.780978 -3.130352 -6.710171 20.558376 -0.017691 0.000000 0.000000 0.000000 
-0.000483 0.953345 0.008313 -0.731448 -6.054339 2.946315 4.561409 0.326864 6.032002 -1.849452 0.370077 -7.351506 3.725250 10.641607 15.766464 0.000000 0.000000 0.000000 -4.983109 0.142260 1.581044 3.854243 -0.365677 -4.212922 -0.165809 -8.103648 18.302517 0.000000 0.000000 0.000000 6.164458 -0.103271 0.043606 -4.815538 1.692772 -22.171165 -1.541147 7.184729 30.551637 8.841512 -3.534803 -23.014423 0.000000 0.000000 0.000000 -7.939342 3.237339 -2.049449 -44.177472 -5.059833 -5.716240 8.023497 -18.574323 -0.454452 0.000000 0.000000 0.000000 16.245688 -11.633779 -6.382494 42.884575 9.149471 -3.483287 -6.495958 20.335143 0.050201 0.000000 0.000000 0.000000 
-0.000694 0.952945 0.008608 -0.715172 -6.073316 3.027753 4.771681 0.306258 5.895602 -2.235246 0.389832 -7.222957 3.742022 10.646839 15.646288 0.000000 0.000000 0.000000 -5.006008 0.151465 1.449067 3.919166 -0.368521 -4.254360 -0.290548 -8.364663 18.494338 0.000000 0.000000 0.000000 6.125452 -0.097580 -0.025469 -4.885672 1.713822 -21.861782 -1.394964 7.285588 30.374087 8.814068 -3.440164 -23.334755 0.000000 0.000000 0.000000 -9.771720 2.954793 -2.159310 -46.538128 -4.804879 -6.063246 7.724503 -18.101735 -0.376069 0.000000 0.000000 0.000000 17.682350 -11.194859 -6.336514 45.932246 8.128125 -3.990558 -6.576537 19.651041 0.071065 0.000000 0.000000 0.000000 
-0.000914 0.952666 0.008787 -0.763262 -6.103899 3.008933 4.958801 0.299286 5.935398 -2.454998 0.402812 -7.207587 3.758435 10.657939 15.565782 0.000000 0.000000 0.000000 -5.076449 0.154790 1.470154 4.051192 -0.374843 -4.100907 -0.079975 -7.927287 18.152428 0.000000 0.000000 0.000000 6.248938 -0.103558 0.028158 -4.996760 1.747098 -21.533068 -1.448533 7.480185 30.113695 8.874386 -3.373663 -23.713911 0.000000 0.000000 0.000000 -11.278848 2.660893 -2.244264 -48.665294 -4.728980 -6.303176 7.280214 -17.949844 -0.295636 0.000000 0.000000 0.000000 18.761799 -10.882504 -6.282103 48.953847 7.208883 -4.481934 -6.070438 18.931642 0.166005 0.000000 0.000000 0.000000 
-0.001129 0.952299 0.008836 -0.759729 -5.869999 2.975897 5.208084 0.281332 5.928836 -2.806633 0.421620 -7.182456 3.636907 10.479515 15.418824 0.000000 0.000000 0.000000 -5.061604 0.146163 1.554683 4.160320 -0.383142 -4.214121 -0.350877 -8.368497 18.282227 0.000000 0.000000 0.000000 6.245991 -0.107782 0.074026 -5.114726 1.783822 -21.490863 -1.333318 7.316587 30.065861 8.857562 -3.339001 -23.893681 0.000000 0.000000 0.000000 -12.498940 2.050254 -2.105700 -50.446447 -4.374903 -6.645090 6.348498 -17.971977 -0.142937 0.000000 0.000000 0.000000 19.561594 -10.387433 -6.108523 51.432120 6.026128 -5.111856 -5.487543 18.512092 0.252731 0.000000 0.000000 0.000000 
-0.001365 0.952031 0.008768 -0.837619 -5.787657 2.971249 5.473039 0.264139 5.908430 -3.070254 0.436160 -7.142781 3.601408 10.419037 15.309206 0.000000 0.000000 0.000000 -5.057691 0.143934 1.567671 4.382518 -0.395779 -4.124910 -0.434090 -8.427280 18.059624 0.000000 0.000000 0.000000 6.361205 -0.114231 0.125565 -5.314740 1.840235 -21.406647 -1.184692 7.353572 29.938789 8.948953 -3.313810 -24.261686 0.000000 0.000000 0.000000 -12.989459 1.659138 -1.999311 -52.460721 -4.201996 -6.938885 5.048472 -17.997507 0.057988 0.000000 0.000000 0.000000 20.097009 -10.064055 -5.970509 53.713875 5.276590 -5.566250 -4.373256 18.292794 0.406130 0.000000 0.000000 0.000000 
